<?xml version="1.0" standalone="no"?>
<!DOCTYPE svg PUBLIC "-//W3C//DTD SVG 20010904//EN"
 "http://www.w3.org/TR/2001/REC-SVG-20010904/DTD/svg10.dtd">
<svg version="1.0" xmlns="http://www.w3.org/2000/svg"
 width="868.000000pt" height="868.000000pt" viewBox="0 0 868.000000 868.000000"
 preserveAspectRatio="xMidYMid meet">
<metadata>
Created by potrace 1.14, written by Peter Selinger 2001-2017
</metadata>
<g transform="translate(0.000000,868.000000) scale(0.100000,-0.100000)"
fill="#000000" stroke="none">
<path d="M3246 7905 c-5 -13 -9 -15 -20 -6 -7 6 -15 8 -18 5 -4 -3 -21 -8 -40
-11 -18 -3 -38 -9 -44 -14 -6 -5 -14 -6 -17 -2 -4 3 -7 1 -7 -4 0 -6 -8 -10
-17 -9 -10 2 -37 -5 -60 -15 -24 -10 -43 -15 -43 -11 0 4 -4 2 -8 -5 -4 -6
-20 -14 -36 -17 -15 -3 -33 -9 -39 -15 -12 -9 -18 -11 -38 -11 -5 0 -7 -5 -3
-12 4 -6 3 -8 -3 -5 -13 8 -75 -12 -85 -27 -4 -6 -8 -7 -8 -3 0 5 -16 0 -35
-12 -23 -13 -35 -16 -35 -8 -1 7 -5 6 -13 -4 -11 -15 -71 -40 -91 -38 -5 0
-12 -5 -16 -12 -5 -7 -16 -13 -27 -14 -10 -1 -36 -11 -58 -21 -22 -10 -43 -17
-47 -16 -5 1 -8 -3 -8 -9 0 -5 -4 -8 -9 -4 -5 3 -12 1 -16 -5 -4 -6 -11 -8
-16 -5 -5 4 -9 3 -9 -2 0 -8 -62 -33 -87 -35 -7 -1 -13 -5 -13 -10 0 -5 -4 -7
-9 -3 -5 3 -12 1 -16 -5 -4 -6 -11 -8 -16 -5 -5 4 -9 1 -9 -5 0 -6 -8 -10 -17
-8 -11 2 -17 -2 -15 -10 1 -8 -2 -11 -7 -7 -6 3 -26 -1 -46 -9 -19 -8 -35 -13
-35 -10 0 3 -7 -2 -16 -11 -12 -12 -20 -13 -29 -5 -10 8 -16 7 -24 -7 -6 -10
-11 -14 -11 -9 0 5 -7 3 -15 -4 -8 -7 -22 -10 -30 -6 -8 3 -15 1 -15 -4 0 -6
-7 -10 -16 -10 -9 0 -12 -5 -8 -12 6 -10 4 -10 -7 0 -16 14 -33 16 -24 2 3 -6
-5 -10 -19 -10 -14 0 -27 -4 -31 -9 -3 -6 -14 -8 -25 -6 -11 2 -20 0 -20 -4 0
-5 -11 -7 -25 -6 -14 2 -27 0 -30 -4 -2 -5 -20 -7 -40 -6 -19 1 -35 -1 -35 -4
0 -8 -120 -4 -128 3 -3 3 -11 1 -19 -5 -7 -6 -13 -7 -13 -2 0 5 -33 8 -72 8
-40 -1 -83 2 -96 7 -15 5 -21 4 -17 -2 3 -6 2 -10 -4 -10 -5 0 -13 5 -16 10
-4 7 -13 6 -27 -1 -16 -9 -23 -8 -29 2 -6 10 -9 10 -9 2 0 -9 -7 -10 -23 -4
-13 5 -30 6 -37 1 -7 -5 -24 -4 -37 1 -16 6 -22 5 -18 -1 3 -6 2 -10 -4 -10
-5 0 -13 5 -16 10 -4 6 -13 7 -23 1 -9 -4 -38 -8 -65 -7 -26 0 -47 -1 -47 -4
0 -3 -21 -5 -48 -5 -26 0 -50 -4 -55 -10 -4 -6 -11 -5 -17 5 -6 10 -10 11 -10
2 0 -6 -3 -11 -7 -10 -5 1 -28 -2 -53 -7 -25 -4 -52 -9 -60 -10 -9 0 -21 -4
-28 -9 -11 -7 -55 -16 -89 -18 -7 -1 -10 -5 -7 -10 5 -8 -9 -12 -33 -9 -7 1
-13 -2 -13 -7 0 -6 -12 -13 -27 -17 -15 -3 -33 -14 -41 -23 -9 -12 -12 -13 -7
-2 4 10 2 9 -8 -2 -8 -10 -17 -15 -20 -11 -4 3 -9 -2 -13 -11 -3 -9 -13 -16
-21 -16 -8 0 -11 -4 -8 -10 3 -5 2 -10 -4 -10 -13 0 -71 -81 -65 -92 3 -4 0
-8 -6 -8 -6 0 -9 -4 -6 -9 3 -5 -1 -12 -10 -15 -13 -5 -14 -9 -4 -21 8 -10 9
-15 2 -15 -6 0 -9 -9 -7 -20 2 -11 0 -22 -6 -25 -5 -4 -5 -14 1 -26 8 -14 7
-19 -1 -19 -8 0 -8 -4 -2 -12 6 -7 9 -23 8 -36 -1 -13 2 -25 7 -28 4 -3 6 -9
3 -14 -3 -4 2 -24 10 -43 8 -19 11 -37 8 -41 -4 -3 -1 -6 5 -6 7 0 11 -3 10
-7 -3 -13 25 -83 34 -83 4 0 8 -7 8 -15 0 -9 7 -27 16 -40 9 -14 13 -25 9 -25
-5 0 1 -8 11 -17 10 -10 20 -25 22 -33 2 -8 8 -16 13 -18 5 -2 9 -13 9 -23 0
-11 5 -17 10 -14 6 3 10 -1 10 -9 0 -8 7 -22 16 -30 8 -9 12 -16 7 -16 -4 0 3
-7 15 -16 12 -8 22 -22 22 -30 0 -8 5 -14 10 -14 6 0 10 -7 10 -15 0 -8 5 -15
10 -15 6 0 10 -6 10 -12 0 -7 15 -29 33 -49 17 -20 39 -47 47 -59 8 -13 29
-38 46 -56 17 -18 29 -36 26 -39 -3 -3 2 -5 11 -5 10 0 16 -3 15 -7 -3 -8 20
-38 60 -79 28 -29 28 -37 -1 -68 -12 -13 -34 -39 -47 -57 -14 -18 -31 -38 -38
-46 -7 -7 -10 -13 -5 -13 4 -1 -3 -7 -17 -15 -14 -8 -21 -14 -17 -15 8 0 -2
-14 -41 -55 -12 -14 -23 -28 -25 -32 -1 -5 -6 -7 -10 -5 -5 1 -6 -1 -3 -6 3
-5 -4 -19 -15 -30 -11 -12 -16 -22 -12 -22 4 0 0 -5 -10 -11 -9 -6 -15 -14
-12 -20 4 -5 -1 -12 -9 -15 -9 -3 -14 -10 -11 -14 3 -4 -2 -11 -11 -14 -8 -3
-12 -10 -9 -16 3 -6 -1 -13 -9 -16 -9 -3 -13 -10 -10 -15 3 -5 1 -9 -4 -9 -6
0 -15 -13 -21 -30 -5 -16 -15 -30 -20 -30 -6 0 -13 -11 -17 -25 -3 -14 -10
-25 -15 -25 -5 0 -9 -9 -9 -20 0 -11 -7 -20 -15 -20 -13 0 -20 -18 -16 -42 0
-5 -3 -8 -8 -8 -5 0 -12 -11 -15 -25 -4 -14 -11 -23 -17 -20 -6 4 -8 -4 -5
-20 3 -15 2 -25 -1 -21 -8 8 -32 -25 -33 -46 0 -10 -5 -18 -11 -18 -5 0 -7 -4
-4 -10 3 -5 2 -10 -4 -10 -5 0 -8 -9 -6 -20 2 -11 1 -19 -3 -17 -4 1 -8 -2
-10 -8 -2 -5 -10 -20 -18 -33 -8 -12 -12 -27 -9 -32 3 -6 1 -10 -5 -10 -7 0
-9 -7 -6 -17 4 -10 4 -14 0 -10 -9 8 -34 -46 -34 -73 0 -10 -7 -23 -15 -30 -8
-7 -12 -16 -9 -21 3 -5 0 -9 -7 -9 -8 0 -8 -4 1 -15 10 -12 9 -15 -5 -15 -11
0 -15 -5 -11 -15 3 -8 0 -20 -7 -27 -11 -12 -16 -28 -19 -65 -1 -7 -5 -13 -10
-13 -5 0 -6 -5 -3 -10 4 -6 1 -17 -5 -25 -6 -8 -9 -18 -6 -23 3 -5 -1 -21 -9
-36 -10 -18 -10 -25 -2 -20 9 5 9 3 0 -7 -7 -7 -13 -24 -13 -37 0 -13 -3 -21
-7 -19 -5 3 -9 -5 -10 -16 -6 -70 -8 -87 -15 -87 -4 0 -7 -8 -7 -17 0 -25 -7
-65 -17 -87 -6 -15 -4 -17 7 -11 11 7 12 6 2 -6 -7 -8 -12 -24 -13 -34 -1 -57
-6 -85 -14 -85 -5 0 -2 -8 5 -17 8 -9 9 -14 3 -10 -7 4 -11 -10 -13 -40 0 -25
-4 -49 -7 -54 -3 -5 1 -9 8 -9 10 0 10 -2 -1 -9 -7 -5 -10 -14 -7 -20 4 -6 1
-11 -6 -11 -8 0 -9 -3 -3 -8 15 -11 17 -32 2 -32 -8 0 -7 -4 3 -10 8 -5 10
-10 4 -10 -6 0 -11 -7 -11 -15 0 -8 5 -15 10 -15 6 0 6 -5 0 -12 -11 -15 -13
-48 -3 -48 4 0 7 -7 7 -15 0 -8 -4 -12 -8 -9 -4 2 -7 -5 -6 -16 1 -11 5 -20
10 -20 5 0 4 -7 -3 -15 -10 -12 -10 -18 -1 -29 7 -8 8 -17 3 -20 -9 -6 -8 -53
2 -63 3 -3 1 -15 -5 -26 -8 -14 -8 -18 0 -13 15 10 14 -17 -1 -33 -9 -10 -9
-12 -1 -7 6 3 14 2 18 -4 3 -5 1 -10 -6 -10 -10 0 -10 -3 -2 -11 6 -6 9 -18 6
-25 -3 -8 0 -21 7 -29 9 -11 9 -15 1 -15 -8 0 -6 -10 4 -30 10 -20 12 -30 4
-30 -9 0 -9 -3 0 -14 6 -7 9 -21 5 -30 -4 -10 -1 -16 7 -16 11 0 11 -3 -1 -10
-12 -8 -12 -10 -1 -10 8 0 11 -7 8 -20 -3 -11 -1 -20 3 -20 5 0 7 -12 5 -26
-1 -14 3 -28 10 -31 8 -3 12 -16 10 -34 -3 -20 -1 -27 7 -23 8 5 9 2 5 -9 -3
-10 -2 -17 4 -17 6 0 8 -4 4 -9 -3 -5 -1 -12 5 -16 5 -3 10 -22 10 -41 0 -19
4 -34 8 -34 5 0 15 -23 22 -50 7 -28 18 -50 23 -50 6 0 7 -3 4 -7 -4 -3 1 -15
10 -26 13 -15 14 -19 3 -13 -8 4 -6 0 5 -9 11 -9 19 -19 18 -23 -4 -14 9 -52
18 -52 5 0 9 -7 9 -15 0 -15 19 -55 31 -65 4 -3 9 -15 13 -27 4 -13 12 -23 17
-23 6 0 7 -4 4 -10 -3 -5 -1 -10 4 -10 6 0 11 -7 11 -15 0 -9 7 -18 16 -22 8
-3 13 -11 10 -18 -2 -6 4 -18 14 -25 11 -8 17 -17 15 -20 -2 -4 5 -17 16 -28
11 -12 18 -22 15 -22 -3 0 6 -11 20 -25 14 -14 22 -30 18 -37 -4 -6 -3 -8 4
-4 6 3 13 -3 17 -14 3 -11 17 -28 31 -39 13 -10 24 -22 24 -26 0 -3 6 -12 12
-20 7 -7 29 -32 48 -55 51 -61 141 -150 153 -150 6 0 8 -2 5 -5 -6 -6 49 -65
60 -65 3 0 21 -16 39 -36 18 -20 33 -34 33 -31 0 3 12 -5 26 -18 15 -14 31
-25 36 -25 5 0 6 -4 3 -10 -3 -5 -1 -10 4 -10 11 0 31 -15 79 -57 13 -13 28
-20 33 -17 5 3 9 -2 9 -10 0 -9 7 -16 15 -16 8 0 15 -4 15 -8 0 -5 12 -15 27
-23 16 -7 38 -24 50 -36 15 -15 23 -19 26 -10 3 7 6 4 6 -5 1 -10 8 -18 17
-18 9 0 12 -5 8 -12 -4 -6 -3 -8 3 -5 5 3 22 -3 39 -14 16 -11 44 -27 62 -35
17 -9 32 -20 32 -25 0 -5 7 -9 15 -9 8 0 15 -4 15 -10 0 -5 5 -10 11 -10 7 0
18 -8 26 -17 9 -11 11 -12 7 -3 -6 11 -2 10 13 -3 11 -9 23 -14 26 -10 4 3 7
2 7 -4 0 -11 73 -50 77 -42 1 2 8 -4 15 -14 12 -16 29 -23 61 -26 5 -1 5 -6 2
-11 -4 -6 5 -10 20 -10 15 0 24 -4 20 -10 -3 -6 3 -10 15 -10 12 0 19 -4 16
-8 -3 -5 1 -9 9 -10 8 -1 22 -3 30 -4 8 -1 17 -8 19 -15 3 -8 10 -11 16 -8 5
3 10 1 10 -5 0 -6 5 -8 10 -5 6 3 13 0 16 -9 3 -8 14 -13 24 -11 10 2 21 -2
23 -9 3 -7 23 -18 46 -26 23 -7 41 -17 41 -23 0 -5 6 -7 14 -4 8 3 17 -1 20
-9 3 -9 11 -12 17 -9 6 4 21 -3 35 -16 15 -14 24 -18 24 -9 0 10 4 10 18 -2 9
-9 27 -19 39 -22 13 -4 23 -11 23 -16 0 -5 7 -7 15 -4 8 4 15 1 15 -6 0 -7 6
-10 14 -7 8 3 17 -1 20 -9 3 -8 11 -14 19 -14 17 0 116 -48 141 -69 11 -9 16
-10 12 -3 -4 6 -5 12 -2 12 2 0 11 -6 18 -12 22 -20 80 -49 72 -36 -4 6 3 4
17 -5 13 -9 30 -17 39 -17 8 0 28 -7 44 -15 16 -9 40 -16 53 -17 12 -1 23 -6
23 -10 0 -4 11 -8 25 -8 14 0 25 -5 25 -11 0 -5 4 -7 10 -4 5 3 23 -1 39 -10
35 -18 45 -19 36 -5 -3 6 10 1 29 -11 19 -11 40 -18 46 -14 5 3 10 2 10 -4 0
-5 8 -8 18 -7 9 2 20 -1 23 -5 3 -5 17 -10 32 -11 15 -1 27 -5 27 -9 0 -6 10
-8 55 -11 14 -1 25 -6 25 -11 0 -4 5 -5 10 -2 6 3 10 2 10 -3 0 -5 11 -8 25
-7 14 2 25 -1 25 -7 0 -5 6 -8 13 -5 6 2 27 -2 45 -9 24 -10 31 -10 25 -1 -4
8 -2 8 9 -1 9 -7 30 -14 47 -14 17 -1 31 -5 31 -10 0 -5 6 -8 13 -5 6 2 21 1
33 -4 26 -9 93 -21 117 -21 9 1 17 -3 17 -7 0 -4 12 -9 28 -10 31 -2 77 -9 77
-11 0 -2 51 -10 87 -13 15 -2 31 -6 34 -10 4 -4 27 -7 51 -7 27 0 43 -5 43
-12 0 -9 3 -9 11 -1 8 8 19 9 37 2 14 -5 31 -8 39 -5 7 3 13 2 13 -2 0 -4 12
-7 28 -6 15 1 33 -4 41 -10 12 -9 13 -8 6 4 -6 12 -5 13 5 3 9 -9 19 -9 33 -2
12 7 17 7 13 1 -3 -5 5 -12 19 -14 15 -3 25 -1 25 6 0 7 3 7 8 1 4 -5 16 -10
27 -9 11 0 26 -5 34 -10 11 -8 13 -8 8 1 -5 8 0 11 13 10 11 -1 20 -4 20 -7 0
-3 26 -5 58 -5 31 1 72 -2 90 -6 18 -4 32 -3 32 3 0 5 6 6 13 1 6 -4 20 -6 30
-5 9 2 17 -3 17 -10 0 -8 3 -9 8 -3 9 14 102 13 102 0 0 -7 3 -7 8 0 4 6 14
10 22 10 8 0 18 -4 22 -10 5 -6 8 -5 8 3 0 9 5 10 18 4 9 -5 26 -6 37 -2 11 4
25 3 32 -2 7 -6 14 -5 18 2 5 8 11 7 23 -2 12 -10 14 -10 8 0 -4 6 -3 12 3 12
5 0 13 -5 16 -10 4 -6 12 -7 18 -3 7 5 30 8 52 8 22 0 43 4 47 10 4 5 8 1 8
-10 0 -16 2 -17 10 -5 10 17 51 20 62 5 5 -6 8 -6 8 2 0 6 9 9 21 6 12 -4 25
0 30 8 5 8 9 9 9 3 0 -7 12 -10 33 -7 17 2 58 5 89 6 32 1 58 6 58 10 0 5 4 6
9 2 5 -3 12 -2 14 2 3 5 28 8 56 7 28 0 51 3 51 7 0 4 10 6 22 4 12 -3 26 -1
32 3 6 5 25 9 41 10 41 3 58 6 70 13 6 4 18 5 28 4 9 -2 17 2 17 8 0 7 5 5 10
-3 7 -12 10 -12 10 -1 0 7 6 11 14 8 7 -3 18 -1 23 4 8 8 43 16 91 21 6 1 12
6 12 12 0 6 4 5 9 -2 6 -11 10 -10 15 3 5 15 9 15 23 4 12 -10 14 -10 9 -1 -6
11 10 15 40 11 4 0 10 4 14 11 4 6 17 12 28 13 12 1 22 5 22 9 0 4 3 7 8 6 14
-3 62 14 62 23 0 5 3 9 8 8 17 -3 51 14 46 22 -3 5 2 6 10 3 10 -4 16 -1 16 7
0 7 3 10 6 6 3 -3 13 1 22 9 10 8 19 13 22 12 3 -2 12 3 20 9 58 48 83 66 77
53 -5 -8 0 -5 9 7 9 13 22 23 30 23 7 0 19 9 27 20 8 11 17 17 20 13 4 -3 15
3 25 15 11 12 22 19 26 15 3 -3 6 -1 6 6 0 7 5 9 10 6 6 -3 10 1 10 9 0 8 5
18 12 22 7 5 9 2 4 -7 -4 -8 1 -4 12 8 11 13 25 23 31 23 6 0 11 4 11 9 0 5 9
13 20 16 11 3 20 13 20 21 0 8 4 13 9 10 10 -7 72 50 63 58 -3 3 5 6 18 6 13
0 20 3 17 6 -4 4 10 20 30 36 20 16 43 38 50 48 8 11 19 18 24 14 5 -3 8 -1 7
3 -2 5 16 28 39 51 23 23 40 42 37 42 -2 0 9 13 26 30 16 16 30 35 30 41 0 7
3 9 7 6 7 -8 69 73 65 85 -1 5 5 8 13 8 8 0 15 5 15 10 0 6 9 20 20 32 11 12
20 28 20 35 0 8 4 12 9 9 5 -3 12 6 15 19 4 14 11 23 16 20 6 -3 10 2 10 13 0
10 9 27 20 37 11 10 17 22 14 26 -3 5 0 9 5 9 6 0 11 7 11 15 0 8 5 15 11 15
5 0 7 5 4 10 -3 6 1 13 9 16 9 3 13 10 10 15 -3 5 0 9 6 9 6 0 8 5 5 10 -3 6
-1 10 5 10 6 0 9 4 5 9 -3 5 1 16 9 24 8 8 12 17 9 21 -4 3 -1 6 5 6 7 0 12
12 12 26 0 14 4 23 10 19 6 -3 10 -2 10 4 0 8 9 34 26 71 1 3 5 15 9 27 4 13
11 23 16 23 5 0 6 7 3 15 -4 8 -1 15 6 15 6 0 9 4 5 10 -3 5 -1 18 5 30 5 11
15 29 20 40 6 11 10 29 10 39 0 11 5 23 11 26 6 4 8 13 5 21 -3 7 -1 16 5 20
6 3 8 12 5 20 -3 8 -2 14 3 14 4 0 8 6 9 13 0 6 3 23 6 37 3 14 8 43 12 65 3
22 11 46 18 54 8 11 8 13 -1 8 -8 -5 -8 1 2 20 10 18 11 31 4 39 -7 8 -7 14 1
19 6 3 8 10 5 15 -3 5 -1 11 5 15 5 3 10 11 10 16 0 6 -6 7 -12 3 -10 -6 -10
-4 -2 7 10 13 15 54 18 139 1 19 5 41 9 48 5 7 3 12 -4 12 -9 0 -9 3 0 14 9
11 9 20 2 34 -6 11 -8 22 -5 24 3 3 7 18 10 33 3 19 1 24 -7 19 -8 -5 -9 -3
-3 7 11 18 13 69 2 91 -4 9 -4 19 1 22 10 7 9 25 -2 43 -4 6 -1 14 5 16 9 4
10 8 2 14 -5 4 -10 28 -10 53 1 25 -2 53 -7 63 -5 11 -3 17 5 17 8 0 9 3 3 8
-5 4 -10 21 -10 37 0 17 -4 36 -9 43 -5 8 -4 12 5 12 9 0 10 3 4 8 -5 4 -11
20 -12 37 -1 16 -5 36 -9 45 -11 26 -11 50 0 50 6 0 5 4 -3 9 -7 5 -14 25 -14
45 -1 20 -4 36 -7 36 -4 0 -6 10 -5 23 1 12 -3 25 -9 29 -7 5 -6 8 3 8 10 0
11 4 3 13 -6 6 -11 15 -11 20 -1 4 -1 8 -2 10 -5 17 -12 57 -12 75 -1 12 -4
22 -8 22 -4 0 -10 7 -13 16 -3 8 -2 12 4 9 6 -3 10 -1 10 4 0 6 -5 11 -11 11
-5 0 -7 5 -4 10 3 6 2 10 -3 10 -5 0 -9 6 -10 13 0 6 -4 26 -7 42 -4 17 -7 42
-8 58 -1 15 -7 27 -12 27 -6 0 -12 15 -13 33 -2 17 -7 34 -12 35 -6 2 -7 8 -4
13 3 6 -2 20 -13 32 -16 19 -16 20 0 8 15 -12 17 -12 11 3 -3 9 -10 16 -15 16
-5 0 -9 14 -9 31 0 17 -4 28 -10 24 -6 -3 -10 4 -11 17 0 13 -3 34 -5 48 -3
16 1 29 12 37 9 6 13 16 9 22 -3 6 -1 11 6 11 7 0 10 3 6 6 -3 3 3 15 13 27
23 24 29 20 34 -21 3 -16 9 -39 15 -50 8 -15 8 -23 0 -28 -8 -5 -8 -9 1 -14 6
-4 12 -21 12 -38 1 -18 5 -32 11 -32 5 0 7 -7 4 -15 -4 -8 -2 -17 3 -20 5 -3
7 -12 4 -19 -3 -8 0 -17 6 -21 9 -6 9 -10 -1 -16 -10 -6 -11 -9 -1 -9 6 0 12
-8 12 -18 0 -10 3 -22 7 -26 4 -3 8 -14 9 -24 8 -49 10 -57 16 -62 4 -3 8 -17
10 -30 2 -14 9 -35 16 -46 6 -12 8 -24 5 -28 -3 -3 -1 -6 5 -6 6 0 9 -6 6 -14
-3 -7 2 -20 10 -29 8 -8 13 -17 10 -20 -3 -3 1 -18 10 -35 8 -16 12 -32 9 -36
-4 -3 -1 -6 6 -6 7 0 9 -4 6 -10 -3 -5 -1 -10 4 -10 6 0 11 -9 11 -20 0 -11 4
-20 9 -20 5 0 14 -13 21 -30 7 -16 17 -30 22 -30 5 0 6 -4 3 -10 -3 -5 -1 -10
5 -10 6 0 9 -3 7 -7 -2 -5 7 -18 20 -30 13 -12 23 -20 23 -16 0 3 7 0 15 -7 8
-7 15 -9 15 -4 0 4 5 3 11 -3 15 -15 63 7 73 32 3 9 11 13 16 10 6 -4 10 -3 9
2 -3 18 2 32 17 47 9 10 11 16 4 16 -7 0 -5 6 4 15 8 9 13 22 10 30 -4 9 1 18
11 21 13 5 14 9 3 15 -10 7 -11 9 0 9 7 0 10 5 7 10 -3 5 -1 10 5 10 6 0 9 4
6 9 -8 13 4 42 15 36 4 -3 6 4 4 15 -2 11 1 20 6 20 6 0 8 4 4 9 -3 6 2 14 11
19 9 5 16 13 16 18 2 20 11 44 17 44 3 0 12 9 19 21 11 17 11 20 0 14 -7 -3
-4 2 7 12 11 10 21 25 23 33 2 8 11 23 19 33 9 9 13 17 9 17 -4 0 2 10 14 22
11 12 20 26 20 30 0 5 5 6 12 2 7 -4 8 -3 4 4 -4 7 4 24 18 39 15 15 26 33 26
39 0 6 11 19 24 30 14 10 23 21 20 26 -3 4 0 8 7 8 7 0 10 3 6 6 -3 3 5 17 19
31 13 13 24 28 24 34 0 6 5 7 10 4 6 -3 10 1 10 9 0 8 7 19 16 24 9 5 15 12
15 16 -2 7 10 22 51 67 15 16 25 29 21 29 -3 0 6 11 20 24 14 13 23 27 20 30
-4 3 1 6 11 6 9 0 15 3 13 8 -3 4 10 23 29 42 19 19 34 38 34 43 0 4 5 5 12 1
7 -4 8 -3 4 5 -4 6 7 26 28 46 20 19 33 35 30 35 -4 0 4 9 17 21 13 11 24 26
24 32 1 7 6 11 12 10 6 -1 14 9 17 23 4 14 10 23 15 20 4 -3 13 6 19 19 7 14
17 25 23 25 6 0 9 7 5 15 -5 14 5 20 27 16 5 -1 6 3 3 8 -3 5 3 20 14 34 11
14 20 30 20 35 0 5 7 13 16 16 8 3 13 10 10 15 -3 5 1 12 10 15 8 3 12 10 9
16 -3 6 1 13 9 16 9 3 14 10 11 14 -3 5 1 15 9 23 8 8 12 17 9 21 -4 3 -1 6 6
6 7 0 9 5 5 11 -3 6 0 15 7 20 11 7 11 9 1 9 -10 0 -10 4 2 16 12 11 13 20 6
33 -5 10 -6 21 -3 25 4 3 -2 13 -13 21 -19 15 -19 15 1 9 12 -3 9 1 -7 11 -16
8 -28 20 -28 25 0 6 -5 10 -12 10 -13 0 -68 59 -68 73 0 4 -6 7 -13 7 -7 0
-17 10 -22 23 -6 12 -17 21 -24 19 -7 -1 -10 1 -7 6 3 5 -4 18 -14 30 -11 12
-20 24 -20 27 0 4 -7 13 -15 22 -8 8 -13 18 -10 23 3 5 -4 11 -15 15 -11 4
-18 10 -15 15 3 5 -2 15 -11 24 -8 9 -12 21 -8 27 4 7 3 9 -3 6 -13 -8 -56 50
-47 65 4 7 3 8 -4 4 -7 -4 -12 -1 -12 9 0 8 -7 18 -15 21 -8 4 -13 10 -10 14
3 5 1 11 -5 15 -6 4 -7 11 -4 17 4 6 2 8 -4 4 -10 -6 -28 30 -24 47 1 5 -2 6
-7 3 -5 -4 -12 3 -16 14 -4 11 -10 18 -15 15 -5 -3 -7 4 -5 15 3 13 0 18 -7
14 -8 -5 -9 -1 -5 10 4 9 3 15 -2 12 -11 -7 -33 18 -24 27 3 4 -2 9 -11 13 -9
3 -13 10 -10 15 3 5 0 9 -6 9 -6 0 -8 5 -5 10 3 6 -1 10 -10 10 -9 0 -13 5
-10 10 3 6 1 10 -6 10 -7 0 -10 3 -6 6 6 7 -3 19 -43 61 -14 14 -18 22 -10 18
8 -4 4 3 -10 16 -14 13 -31 36 -39 51 -8 15 -19 26 -25 25 -6 -1 -10 4 -9 11
2 6 -2 12 -8 12 -5 0 -8 4 -4 9 3 5 -4 12 -15 16 -11 3 -26 18 -34 33 -8 15
-18 26 -23 25 -4 0 -7 3 -6 8 2 5 0 8 -5 8 -16 -3 -32 1 -31 9 1 4 1 14 0 22
-1 12 -3 13 -10 1 -7 -11 -10 -9 -16 8 -3 11 -11 21 -16 21 -6 0 -7 4 -4 10 3
5 0 7 -8 4 -8 -3 -17 2 -20 10 -4 9 -13 16 -22 16 -8 0 -15 4 -15 8 0 5 -12
14 -26 20 -14 7 -23 16 -20 20 2 4 -7 12 -20 19 -18 8 -22 8 -17 0 3 -7 -6 1
-22 16 -16 15 -34 26 -41 23 -7 -3 -15 1 -18 9 -3 8 -15 19 -27 25 -17 10 -20
9 -13 -2 6 -11 5 -11 -9 1 -9 7 -17 10 -17 7 0 -4 -7 0 -16 8 -8 9 -19 14 -24
11 -5 -3 -10 -1 -12 5 -1 5 -16 11 -33 13 -16 2 -39 8 -50 13 -11 6 -35 10
-52 9 -18 -1 -33 3 -33 8 0 5 -8 3 -17 -4 -11 -10 -14 -10 -9 -1 5 8 -2 12
-26 13 -18 0 -43 2 -55 5 -13 2 -23 -1 -23 -7 0 -7 -6 -7 -17 2 -9 8 -18 13
-19 11 -2 -2 -17 -7 -34 -12 -21 -6 -30 -5 -30 3 0 7 -4 7 -9 -2 -11 -17 -39
-23 -47 -10 -3 5 -10 9 -15 9 -6 0 -8 -3 -6 -7 3 -5 -11 -8 -31 -7 -47 0 -64
-5 -55 -20 4 -6 0 -5 -9 2 -13 10 -22 11 -38 2 -12 -6 -29 -10 -38 -8 -9 2
-22 -3 -29 -12 -9 -10 -12 -11 -13 -2 0 9 -6 9 -23 -3 -13 -8 -26 -12 -30 -9
-3 3 -12 2 -19 -2 -7 -5 -24 -10 -38 -12 -14 -2 -32 -9 -40 -16 -8 -7 -25 -11
-37 -10 -13 0 -23 -3 -23 -7 0 -5 -9 -9 -20 -9 -11 0 -34 -8 -52 -18 -18 -10
-39 -17 -45 -15 -7 3 -16 -3 -19 -12 -5 -13 -8 -14 -15 -3 -7 10 -9 10 -9 1 0
-7 -9 -13 -21 -13 -11 0 -17 -4 -14 -10 3 -5 0 -7 -8 -4 -8 3 -18 0 -22 -5 -3
-6 -11 -9 -16 -6 -5 4 -9 1 -9 -5 0 -6 -4 -8 -10 -5 -5 3 -10 1 -10 -5 0 -6
-4 -9 -9 -5 -5 3 -16 -1 -24 -9 -8 -8 -17 -12 -20 -9 -3 3 -18 -4 -33 -16 -15
-11 -35 -21 -45 -21 -11 0 -19 -4 -19 -9 0 -5 -12 -12 -27 -16 -15 -3 -30 -11
-34 -16 -3 -6 -15 -11 -26 -12 -12 0 -19 -6 -17 -12 3 -6 -5 -11 -17 -12 -12
-1 -25 -7 -29 -13 -4 -7 -16 -2 -33 14 -14 13 -28 21 -31 18 -3 -3 -6 2 -6 12
0 9 -4 15 -8 12 -5 -3 -15 4 -22 15 -8 10 -20 19 -27 19 -7 0 -13 5 -13 10 0
6 -7 10 -15 10 -8 0 -19 9 -25 20 -6 11 -18 20 -26 20 -8 0 -12 5 -9 10 3 6 0
10 -8 10 -7 0 -23 9 -35 20 -12 12 -22 17 -22 13 0 -4 -5 0 -11 10 -5 9 -19
17 -30 17 -11 0 -17 5 -14 10 3 6 -1 10 -10 10 -9 0 -25 9 -37 20 -12 11 -28
20 -35 20 -7 0 -13 5 -13 11 0 5 -4 7 -10 4 -5 -3 -10 -1 -10 5 0 6 -4 8 -10
5 -5 -3 -10 -2 -10 3 0 9 -53 36 -65 32 -4 -1 -15 8 -24 19 -19 22 -37 29 -26
10 4 -6 -2 -5 -13 2 -12 7 -18 18 -15 24 4 5 2 7 -2 2 -5 -4 -17 1 -28 10 -11
10 -17 12 -13 6 4 -7 2 -13 -3 -13 -6 0 -11 5 -11 10 0 6 -7 10 -15 10 -8 0
-15 4 -15 9 0 5 -12 12 -27 16 -16 4 -28 5 -28 3 0 -1 -16 7 -36 20 -20 12
-39 19 -42 15 -4 -3 -7 -1 -7 5 0 6 -7 9 -15 6 -8 -4 -15 -1 -15 6 0 6 -4 8
-10 5 -5 -3 -10 -1 -10 6 0 7 -3 9 -7 6 -3 -4 -13 -1 -21 6 -13 10 -14 9 -7
-3 6 -11 3 -10 -12 3 -11 9 -23 14 -26 10 -4 -3 -7 -1 -7 6 0 7 -4 9 -10 6 -5
-3 -10 0 -10 7 0 10 -2 10 -9 -1 -7 -10 -10 -10 -13 -1 -2 7 -13 14 -24 16
-32 4 -64 16 -64 24 0 4 -11 6 -25 5 -14 -2 -25 1 -25 5 0 5 -9 7 -20 5 -11
-2 -18 0 -15 6 4 5 -7 9 -22 9 -16 0 -35 6 -42 13 -11 10 -12 9 -6 -3 7 -12 6
-13 -6 -3 -8 6 -26 13 -39 15 -14 2 -31 7 -37 11 -7 5 -13 5 -13 0 0 -4 -5 -1
-10 7 -7 10 -10 11 -10 2 0 -9 -8 -7 -27 5 -19 13 -25 14 -18 4 6 -11 2 -10
-16 2 -28 20 -43 22 -33 5 5 -9 2 -9 -9 1 -9 7 -17 10 -17 5 0 -4 -5 -3 -12 4
-7 7 -24 12 -38 12 -14 0 -32 6 -39 13 -11 10 -12 9 -6 -3 7 -12 6 -13 -6 -4
-13 9 -31 13 -81 17 -10 1 -18 5 -18 10 0 4 -4 5 -10 2 -5 -3 -10 -3 -10 2 0
4 -24 8 -54 8 -30 -1 -52 3 -50 7 3 4 -14 9 -38 10 -57 2 -61 2 -75 11 -8 5
-13 3 -13 -5 0 -8 -3 -9 -8 -3 -8 11 -17 14 -64 17 -18 1 -41 6 -52 11 -14 7
-17 6 -10 -5 6 -11 5 -11 -9 1 -14 11 -17 11 -17 0 0 -11 -2 -11 -10 1 -5 8
-10 11 -10 6 0 -5 -7 -3 -15 4 -11 9 -15 9 -15 1 0 -9 -5 -9 -20 -1 -11 6 -20
8 -20 4 0 -3 -8 0 -17 7 -9 8 -14 9 -10 3 4 -8 -2 -11 -18 -10 -14 0 -25 5
-25 10 0 5 -7 3 -15 -4 -8 -7 -15 -8 -15 -3 0 5 -21 10 -47 12 -27 1 -67 2
-90 3 -24 1 -43 6 -43 11 0 4 -6 5 -12 0 -21 -12 -38 -12 -38 0 0 8 -3 7 -9
-2 -6 -9 -10 -10 -16 -2 -5 9 -10 9 -20 1 -9 -8 -15 -8 -20 0 -3 6 -11 7 -17
4 -6 -4 -6 0 1 13 6 11 7 23 4 27 -3 3 -2 6 3 6 5 0 10 10 11 23 1 12 4 36 8
52 3 17 7 36 7 43 1 6 4 12 8 12 3 0 5 12 5 28 -1 15 1 32 4 37 8 15 12 52 13
122 1 42 5 60 12 56 8 -5 7 -2 0 8 -6 8 -10 24 -9 37 1 12 -2 22 -7 22 -5 0
-6 5 -3 10 4 6 1 18 -7 27 -11 14 -11 16 2 8 11 -6 10 -3 -2 12 -10 11 -18 24
-18 29 0 5 -10 16 -21 24 -12 8 -27 21 -35 28 -9 9 -15 9 -20 1 -4 -8 -9 -7
-15 2 -7 11 -9 11 -9 -1 0 -13 -1 -13 -10 0 -9 13 -10 13 -10 0 0 -12 -2 -12
-9 -2 -6 11 -10 10 -15 -3z"/>
</g>
</svg>
